<?xml version="1.0" encoding="utf-8"?>
<!-- Generator: Adobe Illustrator 16.0.0, SVG Export Plug-In . SVG Version: 6.00 Build 0)  -->
<!DOCTYPE svg PUBLIC "-//W3C//DTD SVG 1.1//EN" "http://www.w3.org/Graphics/SVG/1.1/DTD/svg11.dtd">
<svg version="1.1" id="Layer_1" xmlns="http://www.w3.org/2000/svg" xmlns:xlink="http://www.w3.org/1999/xlink" x="0px" y="0px"
	 width="275.667px" height="38px" viewBox="0 0 275.667 38" enable-background="new 0 0 275.667 38" xml:space="preserve">
<g>
	<path fill="#E31837" d="M222.471,1.769h13.922c1.942,0,3.151,1.583,2.698,3.534l-6.48,27.826c-0.457,1.942-2.402,3.527-4.349,3.527
		h-13.919c-1.941,0-3.152-1.585-2.698-3.527l6.483-27.826C218.582,3.352,220.527,1.769,222.471,1.769z"/>
	<path fill="#00447C" d="M235.234,1.769h16.01c1.941,0,1.066,1.583,0.608,3.534l-6.479,27.826c-0.454,1.942-0.313,3.527-2.26,3.527
		h-16.009c-1.946,0-3.151-1.585-2.694-3.527l6.48-27.826C231.35,3.352,233.291,1.769,235.234,1.769z"/>
	<path fill="#007B85" d="M250.609,1.769h13.92c1.945,0,3.154,1.583,2.697,3.534l-6.479,27.826c-0.459,1.942-2.405,3.527-4.352,3.527
		h-13.914c-1.947,0-3.154-1.585-2.699-3.527l6.481-27.826C246.718,3.352,248.662,1.769,250.609,1.769z"/>
	<path fill="#FFFFFF" d="M248.285,27.941h1.313l0.377-1.26h-1.309L248.285,27.941z M249.333,24.459l-0.45,1.494
		c0,0,0.499-0.255,0.767-0.335c0.271-0.062,0.682-0.113,0.682-0.113l0.318-1.046H249.333 M249.986,22.313l-0.436,1.436
		c0,0,0.49-0.221,0.754-0.294c0.271-0.072,0.675-0.095,0.675-0.095l0.315-1.047H249.986 M252.889,22.313l-1.698,5.615h0.459
		l-0.354,1.16h-0.453l-0.106,0.357h-1.617l0.11-0.357h-3.278l0.326-1.074h0.334l1.721-5.701l0.345-1.149h1.646l-0.172,0.58
		c0,0,0.438-0.315,0.854-0.423c0.415-0.11,2.802-0.149,2.802-0.149l-0.354,1.142H252.889"/>
	<path fill="#FFFFFF" d="M253.615,21.171h1.76l0.019,0.654c-0.012,0.11,0.084,0.163,0.289,0.163h0.356l-0.326,1.081h-0.949
		c-0.822,0.059-1.136-0.294-1.113-0.691L253.615,21.171z"/>
	<path fill="#FFFFFF" d="M253.848,26.301h-1.677l0.287-0.962h1.918l0.271-0.88h-1.893l0.322-1.085h5.263l-0.327,1.085h-1.766
		l-0.275,0.88h1.771l-0.295,0.962h-1.912l-0.34,0.406h0.775l0.189,1.213c0.021,0.12,0.021,0.2,0.062,0.251
		c0.039,0.042,0.272,0.065,0.407,0.065h0.236l-0.359,1.18h-0.598c-0.092,0-0.229-0.007-0.42-0.016
		c-0.179-0.016-0.305-0.119-0.426-0.182c-0.111-0.051-0.273-0.184-0.314-0.41l-0.186-1.211l-0.871,1.192
		c-0.275,0.378-0.649,0.665-1.281,0.665h-1.219l0.319-1.055h0.466c0.135,0,0.252-0.053,0.342-0.098
		c0.088-0.037,0.168-0.084,0.256-0.214L253.848,26.301z"/>
	<path fill="#FFFFFF" d="M235.494,23.664h4.44l-0.329,1.059h-1.773l-0.277,0.903h1.816l-0.332,1.093h-1.814l-0.441,1.469
		c-0.053,0.162,0.434,0.183,0.607,0.183l0.907-0.125l-0.365,1.21h-2.045c-0.165,0-0.288-0.023-0.466-0.064
		c-0.172-0.043-0.249-0.119-0.324-0.236c-0.074-0.119-0.189-0.217-0.111-0.475l0.59-1.943h-1.01l0.336-1.11h1.012l0.27-0.903h-1.01
		L235.494,23.664z"/>
	<path fill="#FFFFFF" d="M238.48,21.762h1.821l-0.33,1.106h-2.487l-0.27,0.233c-0.116,0.111-0.156,0.065-0.309,0.146
		c-0.141,0.07-0.435,0.211-0.816,0.211h-0.797l0.32-1.063h0.239c0.201,0,0.341-0.02,0.411-0.063
		c0.079-0.052,0.168-0.165,0.268-0.346l0.459-0.831h1.809L238.48,21.762z"/>
	<path fill="#FFFFFF" d="M241.973,23.583c0,0,0.496-0.455,1.349-0.603c0.192-0.035,1.399-0.022,1.399-0.022l0.185-0.61h-2.563
		L241.973,23.583z M244.376,24.045h-2.541l-0.156,0.512h2.2c0.259-0.031,0.313,0.006,0.335-0.006L244.376,24.045 M241.083,21.171
		h1.552l-0.228,0.78c0,0,0.49-0.393,0.834-0.533c0.34-0.126,1.112-0.24,1.112-0.24l2.511-0.015l-0.854,2.849
		c-0.145,0.486-0.313,0.803-0.417,0.946c-0.095,0.146-0.206,0.271-0.424,0.39c-0.21,0.114-0.404,0.178-0.582,0.196
		c-0.166,0.013-0.421,0.017-0.772,0.021h-2.419l-0.68,2.25c-0.065,0.225-0.097,0.332-0.054,0.394
		c0.035,0.052,0.117,0.112,0.23,0.112l1.066-0.102l-0.366,1.236h-1.19c-0.381,0-0.656-0.009-0.851-0.023
		c-0.185-0.017-0.376,0-0.506-0.099c-0.11-0.098-0.279-0.228-0.274-0.358c0.012-0.123,0.063-0.324,0.141-0.604L241.083,21.171"/>
	<path fill="#FFFFFF" d="M245.607,25.766l-0.146,0.683c-0.062,0.214-0.114,0.375-0.276,0.511c-0.169,0.145-0.367,0.296-0.833,0.296
		l-0.86,0.036l-0.008,0.773c-0.01,0.217,0.049,0.195,0.084,0.229c0.039,0.04,0.075,0.056,0.111,0.07l0.273-0.015l0.822-0.045
		l-0.342,1.127h-0.943c-0.66,0-1.149-0.016-1.311-0.142c-0.158-0.101-0.18-0.228-0.177-0.444l0.062-3.014h1.506l-0.021,0.616h0.361
		c0.125,0,0.207-0.013,0.261-0.045c0.046-0.035,0.079-0.081,0.101-0.156l0.15-0.481H245.607z"/>
	<path fill="#FFFFFF" d="M224.119,10.655c-0.051,0.246-1.019,4.702-1.021,4.706c-0.208,0.901-0.358,1.544-0.873,1.959
		c-0.292,0.241-0.633,0.358-1.026,0.358c-0.637,0-1.006-0.315-1.067-0.914l-0.013-0.206c0,0,0.193-1.208,0.193-1.214
		c0,0,1.014-4.061,1.196-4.598c0.009-0.031,0.012-0.047,0.015-0.061c-1.975,0.018-2.324,0-2.348-0.032
		c-0.014,0.044-0.063,0.295-0.063,0.295l-1.035,4.577l-0.09,0.388l-0.172,1.27c0,0.376,0.074,0.684,0.223,0.944
		c0.472,0.824,1.815,0.947,2.578,0.947c0.979,0,1.898-0.208,2.521-0.588c1.079-0.638,1.36-1.635,1.612-2.521l0.117-0.455
		c0,0,1.045-4.218,1.223-4.766c0.006-0.031,0.009-0.047,0.02-0.061C224.677,10.701,224.254,10.686,224.119,10.655z"/>
	<path fill="#FFFFFF" d="M229.898,19.033c-0.699-0.012-0.947-0.012-1.767,0.032l-0.03-0.063c0.07-0.313,0.146-0.619,0.219-0.935
		l0.1-0.426c0.15-0.662,0.299-1.432,0.314-1.668c0.018-0.14,0.065-0.493-0.339-0.493c-0.17,0-0.347,0.083-0.526,0.166
		c-0.1,0.353-0.297,1.342-0.394,1.793c-0.202,0.951-0.214,1.061-0.307,1.53l-0.058,0.064c-0.723-0.012-0.974-0.012-1.804,0.032
		l-0.037-0.071c0.138-0.563,0.275-1.133,0.408-1.698c0.349-1.532,0.433-2.118,0.526-2.897l0.066-0.046
		c0.811-0.114,1.006-0.137,1.883-0.315l0.073,0.082l-0.135,0.488c0.149-0.089,0.291-0.178,0.44-0.255
		c0.414-0.202,0.873-0.264,1.127-0.264c0.385,0,0.805,0.108,0.979,0.551c0.166,0.397,0.057,0.883-0.162,1.843l-0.113,0.49
		c-0.224,1.067-0.261,1.263-0.387,1.996L229.898,19.033z"/>
	<path fill="#FFFFFF" d="M232.742,19.033c-0.424-0.003-0.695-0.012-0.959-0.003c-0.266,0.003-0.521,0.016-0.914,0.035l-0.021-0.035
		l-0.024-0.037c0.106-0.405,0.166-0.545,0.219-0.69c0.055-0.144,0.104-0.288,0.199-0.699c0.123-0.536,0.197-0.91,0.246-1.239
		c0.06-0.318,0.09-0.588,0.135-0.901l0.029-0.024l0.032-0.03c0.421-0.059,0.687-0.098,0.96-0.142
		c0.275-0.036,0.553-0.091,0.987-0.175l0.017,0.037l0.012,0.04c-0.08,0.332-0.162,0.663-0.242,1c-0.077,0.337-0.159,0.668-0.233,1
		c-0.155,0.705-0.22,0.968-0.257,1.16c-0.037,0.178-0.046,0.275-0.105,0.64l-0.041,0.033L232.742,19.033z"/>
	<path fill="#FFFFFF" d="M237.197,16.543c-0.035,0.181-0.193,0.856-0.408,1.144c-0.15,0.212-0.327,0.341-0.523,0.341
		c-0.059,0-0.404,0-0.411-0.516c-0.003-0.254,0.05-0.514,0.113-0.796c0.185-0.815,0.401-1.5,0.957-1.5
		C237.359,15.216,237.389,15.726,237.197,16.543z M239.031,16.62c0.246-1.076,0.055-1.578-0.187-1.885
		c-0.364-0.467-1.008-0.616-1.676-0.616c-0.402,0-1.359,0.04-2.106,0.729c-0.537,0.497-0.785,1.171-0.935,1.818
		c-0.151,0.659-0.324,1.845,0.766,2.287c0.337,0.145,0.821,0.184,1.136,0.184c0.799,0,1.617-0.22,2.233-0.873
		C238.738,17.734,238.955,16.945,239.031,16.62"/>
	<path fill="#FFFFFF" d="M256.148,19.104c-0.847-0.006-1.089-0.006-1.869,0.026l-0.049-0.063c0.211-0.803,0.422-1.604,0.611-2.416
		c0.245-1.054,0.301-1.501,0.38-2.118l0.063-0.052c0.84-0.119,1.074-0.153,1.947-0.315l0.024,0.073
		c-0.16,0.663-0.317,1.322-0.474,1.987c-0.32,1.389-0.438,2.094-0.561,2.82L256.148,19.104z"/>
	<path fill="#FFFFFF" d="M254.879,16.636c-0.042,0.175-0.203,0.854-0.417,1.14c-0.145,0.203-0.484,0.329-0.682,0.329
		c-0.056,0-0.397,0-0.41-0.506c-0.002-0.252,0.05-0.512,0.113-0.797c0.188-0.8,0.401-1.478,0.959-1.478
		C254.879,15.324,255.066,15.817,254.879,16.636z M256.549,16.716c0.245-1.07-0.745-0.096-0.901-0.448
		c-0.24-0.551-0.092-1.667-1.063-2.041c-0.374-0.147-1.252,0.042-2.006,0.729c-0.53,0.491-0.785,1.162-0.93,1.807
		c-0.152,0.648-0.328,1.835,0.758,2.258c0.347,0.147,0.656,0.191,0.973,0.175c1.091-0.058,1.922-1.707,2.537-2.357
		C256.392,16.321,256.475,17.031,256.549,16.716"/>
	<path fill="#FFFFFF" d="M243.812,19.033c-0.701-0.012-0.941-0.012-1.763,0.032l-0.03-0.063c0.07-0.313,0.149-0.619,0.223-0.935
		l0.096-0.426c0.154-0.662,0.302-1.432,0.314-1.668c0.018-0.14,0.065-0.493-0.336-0.493c-0.175,0-0.35,0.083-0.529,0.166
		c-0.096,0.353-0.299,1.342-0.396,1.793c-0.195,0.951-0.21,1.061-0.299,1.53l-0.063,0.064c-0.721-0.012-0.969-0.012-1.799,0.032
		l-0.037-0.071c0.137-0.563,0.274-1.133,0.407-1.698c0.349-1.532,0.429-2.118,0.526-2.897l0.063-0.046
		c0.809-0.114,1.008-0.137,1.885-0.315l0.067,0.082l-0.126,0.488c0.145-0.089,0.291-0.178,0.438-0.255
		c0.412-0.202,0.873-0.264,1.127-0.264c0.38,0,0.803,0.108,0.981,0.551c0.163,0.397,0.052,0.883-0.167,1.843l-0.111,0.49
		c-0.229,1.067-0.262,1.263-0.387,1.996L243.812,19.033z"/>
	<path fill="#FFFFFF" d="M249.88,10.649c-0.006,0-0.584,0.005-0.584,0.005c-1.514,0.018-2.12,0.013-2.369-0.017
		c-0.021,0.11-0.063,0.306-0.063,0.306s-0.541,2.513-0.541,2.517c0,0-1.299,5.343-1.358,5.595c1.321-0.016,1.862-0.016,2.091,0.009
		c0.053-0.251,0.357-1.745,0.361-1.745c0,0,0.261-1.094,0.275-1.134c0,0,0.082-0.114,0.166-0.159h0.119c1.141,0,2.428,0,3.436-0.742
		c0.688-0.51,1.156-1.261,1.365-2.174c0.055-0.224,0.094-0.49,0.094-0.757c0-0.35-0.068-0.696-0.272-0.966
		C252.086,10.668,251.06,10.655,249.88,10.649z M250.636,13.265c-0.123,0.558-0.484,1.026-0.95,1.253
		c-0.383,0.192-0.853,0.208-1.336,0.208h-0.313l0.023-0.126c0,0,0.576-2.507,0.574-2.498l0.02-0.129l0.008-0.098l0.229,0.023
		c0,0,1.188,0.103,1.218,0.104C250.578,12.185,250.771,12.653,250.636,13.265"/>
	<path fill="#FFFFFF" d="M263.064,14.159l-0.068-0.076c-0.864,0.175-1.021,0.203-1.813,0.31l-0.06,0.058
		c-0.002,0.009-0.006,0.023-0.008,0.037l-0.004-0.013c-0.592,1.364-0.574,1.07-1.056,2.144c-0.003-0.05-0.003-0.08-0.006-0.131
		l-0.12-2.328l-0.074-0.076c-0.906,0.175-0.928,0.203-1.765,0.31l-0.063,0.058c-0.01,0.028-0.01,0.058-0.016,0.091l0.006,0.012
		c0.104,0.534,0.08,0.414,0.186,1.257c0.049,0.414,0.113,0.83,0.162,1.238c0.082,0.684,0.129,1.021,0.229,2.063
		c-0.564,0.932-0.698,1.283-1.242,2.102l0.035,0.077c0.814-0.03,1.005-0.03,1.607-0.03l0.133-0.148
		C259.583,20.127,263.064,14.159,263.064,14.159z"/>
	<path fill="#FFFFFF" d="M233.507,14.735c0.465-0.322,0.523-0.766,0.134-0.997c-0.396-0.233-1.089-0.159-1.555,0.163
		c-0.466,0.316-0.519,0.763-0.125,1C232.349,15.128,233.045,15.06,233.507,14.735z"/>
	<path fill="#FFFFFF" d="M259.066,21.194l-0.681,1.165c-0.214,0.398-0.612,0.695-1.248,0.699l-1.082-0.02l0.315-1.048h0.211
		c0.111,0,0.189-0.006,0.252-0.037c0.055-0.019,0.096-0.062,0.14-0.125l0.401-0.635H259.066z"/>
</g>
<path fill="#2A2B6D" d="M45.319,14.806c-0.043,3.404,3.034,5.303,5.352,6.432c2.383,1.159,3.182,1.903,3.173,2.938
	c-0.019,1.586-1.9,2.286-3.661,2.314c-3.072,0.046-4.858-0.831-6.278-1.493l-1.106,5.179c1.424,0.657,4.063,1.229,6.799,1.254
	c6.421,0,10.624-3.169,10.646-8.085c0.025-6.237-8.628-6.583-8.568-9.371c0.02-0.846,0.827-1.747,2.594-1.977
	c0.875-0.116,3.291-0.205,6.029,1.056l1.074-5.01c-1.471-0.537-3.365-1.05-5.721-1.05C49.604,6.994,45.353,10.206,45.319,14.806
	 M71.699,7.425c-1.172,0-2.162,0.684-2.603,1.733l-9.173,21.904h6.417l1.277-3.529h7.842l0.742,3.529h5.655L76.92,7.425
	L71.699,7.425 M72.596,13.811l1.853,8.875h-5.073L72.596,13.811 M37.539,7.425L32.48,31.062h6.115l5.056-23.637H37.539
	 M28.492,7.425l-6.364,16.088L19.554,9.834c-0.303-1.527-1.496-2.409-2.82-2.409H6.328L6.183,8.111
	c2.136,0.464,4.563,1.211,6.033,2.011c0.9,0.488,1.157,0.915,1.452,2.077l4.876,18.863h6.462l9.908-23.637H28.492"/>
<g>
	<path fill="#010101" d="M102.616,36.211v-2.295c0-0.88-0.535-1.454-1.453-1.454c-0.46,0-0.957,0.154-1.301,0.651
		c-0.268-0.422-0.65-0.651-1.224-0.651c-0.383,0-0.765,0.115-1.071,0.536V32.54h-0.804v3.671h0.804v-2.025
		c0-0.651,0.344-0.957,0.88-0.957c0.535,0,0.803,0.345,0.803,0.957v2.025h0.804v-2.025c0-0.651,0.382-0.957,0.88-0.957
		c0.535,0,0.804,0.345,0.804,0.957v2.025H102.616L102.616,36.211z M114.512,32.54h-1.301v-1.11h-0.804v1.11h-0.726v0.726h0.726
		v1.685c0,0.842,0.345,1.34,1.263,1.34c0.344,0,0.727-0.116,0.995-0.269l-0.229-0.688c-0.229,0.151-0.498,0.19-0.688,0.19
		c-0.383,0-0.537-0.229-0.537-0.611v-1.646h1.302V32.54L114.512,32.54z M121.32,32.462c-0.459,0-0.764,0.229-0.957,0.536V32.54
		h-0.803v3.671h0.803v-2.066c0-0.61,0.269-0.955,0.767-0.955c0.153,0,0.345,0.039,0.497,0.076l0.229-0.765
		C121.704,32.462,121.475,32.462,121.32,32.462L121.32,32.462L121.32,32.462z M111.031,32.845c-0.382-0.267-0.917-0.382-1.491-0.382
		c-0.919,0-1.53,0.459-1.53,1.186c0,0.612,0.458,0.957,1.262,1.071l0.383,0.038c0.421,0.077,0.65,0.191,0.65,0.383
		c0,0.269-0.305,0.459-0.841,0.459s-0.956-0.19-1.224-0.383l-0.383,0.612c0.421,0.306,0.995,0.46,1.568,0.46
		c1.071,0,1.684-0.498,1.684-1.188c0-0.65-0.498-0.994-1.263-1.108l-0.382-0.038c-0.345-0.039-0.612-0.115-0.612-0.344
		c0-0.27,0.267-0.422,0.688-0.422c0.459,0,0.918,0.19,1.147,0.306L111.031,32.845L111.031,32.845z M132.375,32.462
		c-0.459,0-0.766,0.229-0.955,0.536V32.54h-0.805v3.671h0.805v-2.066c0-0.61,0.268-0.955,0.766-0.955
		c0.15,0,0.344,0.039,0.498,0.076l0.227-0.765C132.756,32.462,132.528,32.462,132.375,32.462L132.375,32.462L132.375,32.462z
		 M122.125,34.375c0,1.109,0.766,1.914,1.95,1.914c0.534,0,0.918-0.116,1.3-0.422l-0.382-0.65c-0.306,0.229-0.612,0.344-0.956,0.344
		c-0.65,0-1.109-0.459-1.109-1.186c0-0.688,0.459-1.146,1.109-1.186c0.344,0,0.65,0.113,0.956,0.344l0.382-0.65
		c-0.382-0.305-0.766-0.42-1.3-0.42C122.889,32.462,122.125,33.266,122.125,34.375L122.125,34.375L122.125,34.375z M129.543,34.375
		V32.54h-0.802v0.458c-0.269-0.344-0.65-0.536-1.148-0.536c-1.032,0-1.836,0.804-1.836,1.913s0.804,1.914,1.836,1.914
		c0.536,0,0.919-0.191,1.148-0.537v0.459h0.802V34.375z M126.6,34.375c0-0.65,0.42-1.186,1.108-1.186
		c0.649,0,1.108,0.496,1.108,1.186c0,0.65-0.459,1.186-1.108,1.186C127.02,35.521,126.6,35.025,126.6,34.375L126.6,34.375z
		 M116.998,32.462c-1.07,0-1.835,0.765-1.835,1.913s0.767,1.914,1.875,1.914c0.536,0,1.069-0.154,1.491-0.498l-0.383-0.574
		c-0.307,0.229-0.688,0.383-1.07,0.383c-0.497,0-0.995-0.229-1.109-0.88h2.715v-0.307C118.719,33.229,118.031,32.462,116.998,32.462
		L116.998,32.462L116.998,32.462z M116.998,33.15c0.498,0,0.842,0.307,0.919,0.881h-1.913
		C116.08,33.533,116.424,33.15,116.998,33.15L116.998,33.15z M136.926,34.375v-3.29h-0.802v1.913
		c-0.268-0.344-0.65-0.536-1.146-0.536c-1.033,0-1.836,0.804-1.836,1.913s0.803,1.914,1.836,1.914c0.535,0,0.918-0.191,1.146-0.537
		v0.459h0.802V34.375z M133.983,34.375c0-0.65,0.42-1.186,1.107-1.186c0.65,0,1.109,0.496,1.109,1.186
		c0,0.65-0.458,1.186-1.109,1.186C134.403,35.521,133.983,35.025,133.983,34.375L133.983,34.375z M107.13,34.375V32.54h-0.803v0.458
		c-0.269-0.344-0.651-0.536-1.147-0.536c-1.033,0-1.836,0.804-1.836,1.913s0.803,1.914,1.836,1.914c0.535,0,0.917-0.191,1.147-0.537
		v0.459h0.803V34.375z M104.146,34.375c0-0.65,0.421-1.186,1.109-1.186c0.65,0,1.109,0.496,1.109,1.186
		c0,0.65-0.459,1.186-1.109,1.186C104.567,35.521,104.146,35.025,104.146,34.375z"/>
	<rect x="110.764" y="4.654" fill="#F26122" width="12.048" height="21.65"/>
	<path fill="#EA1D25" d="M111.528,15.479c0-4.398,2.065-8.3,5.24-10.825c-2.332-1.836-5.278-2.945-8.491-2.945
		c-7.612,0-13.77,6.158-13.77,13.77s6.158,13.771,13.77,13.771c3.213,0,6.159-1.109,8.493-2.945
		C113.594,23.818,111.528,19.878,111.528,15.479z"/>
	<path fill="#F69E1F" d="M139.068,15.479c0,7.612-6.157,13.771-13.77,13.771c-3.213,0-6.157-1.109-8.491-2.945
		c3.213-2.523,5.24-6.427,5.24-10.826c0-4.398-2.066-8.3-5.24-10.825c2.334-1.836,5.278-2.945,8.491-2.945
		C132.911,1.709,139.068,7.906,139.068,15.479z"/>
</g>
<g>
	<polygon fill="#2F6FB7" points="155.724,1.769 198.849,1.769 198.849,20.603 198.849,25.702 198.849,36.656 155.724,36.656 
		155.724,18.903 155.724,16.474 	"/>
	<path fill="#FFFFFF" d="M164.093,27.509v-6.771h7.171l0.768,1.002l0.796-1.002h26.021v6.302c0,0-0.681,0.461-1.468,0.469h-14.409
		l-0.866-1.069v1.069h-2.842v-1.822c0,0-0.388,0.255-1.228,0.255h-0.969v1.567h-4.301l-0.769-1.024l-0.78,1.024H164.093
		L164.093,27.509z"/>
	<path fill="#FFFFFF" d="M155.724,15.635l1.616-3.768h2.796l0.915,2.11v-2.11h3.477l0.546,1.525l0.53-1.525h15.6v0.766
		c0,0,0.822-0.766,2.169-0.766l5.063,0.017l0.901,2.083v-2.1h2.907l0.799,1.196v-1.196h2.938v6.77h-2.938l-0.765-1.2v1.2h-4.275
		l-0.43-1.067h-1.147l-0.423,1.067h-2.899c-1.158,0-1.901-0.752-1.901-0.752v0.752h-4.368l-0.868-1.067v1.067h-16.247l-0.431-1.067
		h-1.144l-0.428,1.067h-1.997v-3.002H155.724z"/>
	<path fill="#2F6FB7" d="M157.913,12.701l-2.181,5.07h1.42l0.401-1.016h2.34l0.4,1.016h1.449l-2.177-5.07H157.913L157.913,12.701z
		 M158.719,13.881l0.713,1.775h-1.43L158.719,13.881L158.719,13.881z"/>
	<polygon fill="#2F6FB7" points="161.893,17.771 161.893,12.7 163.911,12.708 165.084,15.976 166.228,12.7 168.23,12.7 
		168.23,17.771 166.963,17.771 166.963,14.036 165.62,17.771 164.509,17.771 163.161,14.036 163.161,17.771 	"/>
	<polygon fill="#2F6FB7" points="169.098,17.771 169.098,12.7 173.234,12.7 173.234,13.835 170.378,13.835 170.378,14.702 
		173.167,14.702 173.167,15.769 170.378,15.769 170.378,16.669 173.234,16.669 173.234,17.771 	"/>
	<path fill="#2F6FB7" d="M173.966,12.701v5.07h1.268V15.97h0.534l1.52,1.801h1.55l-1.668-1.868c0.686-0.057,1.391-0.645,1.391-1.557
		c0-1.067-0.838-1.646-1.771-1.646H173.966L173.966,12.701z M175.234,13.835h1.449c0.349,0,0.6,0.272,0.6,0.534
		c0,0.337-0.327,0.533-0.581,0.533h-1.468V13.835L175.234,13.835L175.234,13.835z"/>
	<polygon fill="#2F6FB7" points="180.372,17.771 179.078,17.771 179.078,12.7 180.372,12.7 	"/>
	<path fill="#2F6FB7" d="M183.438,17.771h-0.278c-1.352,0-2.173-1.065-2.173-2.514c0-1.485,0.812-2.557,2.519-2.557h1.401v1.201
		h-1.451c-0.694,0-1.183,0.541-1.183,1.368c0,0.982,0.561,1.394,1.366,1.394h0.335L183.438,17.771L183.438,17.771z"/>
	<path fill="#2F6FB7" d="M186.198,12.701l-2.181,5.07h1.421l0.4-1.016h2.338l0.401,1.016h1.45l-2.176-5.07H186.198L186.198,12.701z
		 M187.005,13.881l0.712,1.775h-1.428L187.005,13.881L187.005,13.881z"/>
	<polygon fill="#2F6FB7" points="190.177,17.771 190.177,12.7 191.789,12.7 193.845,15.886 193.845,12.7 195.114,12.7 
		195.114,17.771 193.554,17.771 191.446,14.502 191.446,17.771 	"/>
	<polygon fill="#2F6FB7" points="164.962,26.644 164.962,21.572 169.098,21.572 169.098,22.706 166.243,22.706 166.243,23.574 
		169.031,23.574 169.031,24.641 166.243,24.641 166.243,25.541 169.098,25.541 169.098,26.644 	"/>
	<polygon fill="#2F6FB7" points="185.228,26.644 185.228,21.572 189.364,21.572 189.364,22.706 186.508,22.706 186.508,23.574 
		189.284,23.574 189.284,24.641 186.508,24.641 186.508,25.541 189.364,25.541 189.364,26.644 	"/>
	<polygon fill="#2F6FB7" points="169.26,26.644 171.271,24.141 169.21,21.572 170.806,21.572 172.035,23.159 173.265,21.572 
		174.802,21.572 172.767,24.107 174.783,26.644 173.187,26.644 171.997,25.081 170.833,26.644 	"/>
	<path fill="#2F6FB7" d="M174.935,21.573v5.07h1.299v-1.603h1.335c1.128,0,1.984-0.598,1.984-1.763c0-0.966-0.672-1.705-1.819-1.705
		H174.935L174.935,21.573z M176.234,22.718h1.403c0.366,0,0.628,0.225,0.628,0.586c0,0.338-0.259,0.584-0.629,0.584h-1.402V22.718
		L176.234,22.718L176.234,22.718z"/>
	<path fill="#2F6FB7" d="M180.105,21.572v5.071h1.266V24.84h0.535l1.519,1.804h1.549l-1.668-1.869
		c0.688-0.059,1.394-0.646,1.394-1.558c0-1.066-0.84-1.645-1.772-1.645H180.105L180.105,21.572L180.105,21.572z M181.373,22.706
		h1.449c0.349,0,0.601,0.273,0.601,0.536c0,0.335-0.329,0.531-0.583,0.531h-1.467V22.706L181.373,22.706z"/>
	<path fill="#2F6FB7" d="M189.952,26.644v-1.103h2.535c0.376,0,0.537-0.202,0.537-0.426c0-0.212-0.162-0.429-0.537-0.429h-1.146
		c-0.996,0-1.552-0.607-1.552-1.52c0-0.811,0.508-1.596,1.988-1.596h2.469l-0.536,1.143h-2.135c-0.407,0-0.533,0.212-0.533,0.418
		c0,0.209,0.155,0.44,0.467,0.44h1.199c1.112,0,1.594,0.63,1.594,1.455c0,0.888-0.536,1.612-1.652,1.612h-2.698V26.644z"/>
	<path fill="#2F6FB7" d="M194.603,26.644v-1.103h2.428c0.376,0,0.537-0.202,0.537-0.426c0-0.212-0.162-0.429-0.537-0.429h-1.04
		c-0.994,0-1.553-0.607-1.553-1.52c0-0.811,0.511-1.596,1.991-1.596h2.417l-0.532,1.143h-2.086c-0.408,0-0.535,0.212-0.535,0.418
		c0,0.209,0.157,0.44,0.468,0.44h1.095c1.111,0,1.594,0.63,1.594,1.455c0,0.888-0.536,1.612-1.653,1.612h-2.593V26.644z"/>
</g>
</svg>
